<svg xmlns="http://www.w3.org/2000/svg" viewBox="0 0 566.93 566.93"><defs><style>.cls-1{fill:#000;}@media(prefers-color-scheme:dark){.cls-1{fill:#fff;}}</style></defs><title>Salmina Icon</title><g id="Hand"><path class="cls-1" d="M371.05,488.06c9.89-15.85,9.81-13.11,36.93-16.56s42.73,7.56,62.15,8c16.53.36,23.52,1.72,34.22-4.76,10.16-6.15,6.57-9.61,3-11.24a16.1,16.1,0,0,0-4.92-1.33c-7.78-.94-45.37-5.77-60.17-13.17-13.49-6.74-38-5.54-46.55-4.87,14.32-2.64,62.18-22.24,62.18-22.24s35.85,13.33,54.69,6.89,2-14.23,2-14.23c18.34-4.1,12.08-12.52,12.08-12.52-13.38-3-62.07-20.13-75.17-28.41s-23.9-1.37-23.9-1.37L389,386c12.41-6.66,41.37-34,41.37-34,5.74-.23,39.07-3.22,55.61-11.49s10.12-19.76,10.12-19.76c-7.59,1.38-56.79,4.22-69.41,5.05s-19.75,7.21-25.74,11.95c-13,10.3-31.21,21.6-31.21,21.6s-66.92,36.78-86.46,70.33C266.51,458.46,171.71,543.32,145,566.93H261.7a47.06,47.06,0,0,1,18.67-12C312.74,543.81,361.17,503.92,371.05,488.06Z"/><path class="cls-1" d="M323.51,367.19c18.17-12.69,34.09-21.68,37.07-23.34,2.55-1.6,18.11-11.44,29.18-20.2l1.11-.88c1.86-1.49,4.09-3.26,6.72-5.06,22.11-49.59,49-139.87,41.85-215.19-51.8-30.12-103.09-42.29-156-42.29s-104.18,12.17-156,42.29c-7.89,83.4,25.9,185.15,48.76,229.69,24.24,47.22,65.51,69.93,104.74,70.85Q296.51,386.08,323.51,367.19Zm54.74-159.41c-30.18,4-57.93-7-57.93-7s6.83-43.2,49.08-42.39c0,0,27-2.42,42.64,19.31C412,177.7,408.42,203.75,378.25,207.78ZM421,134.13c7,3.36,4.23,5.57-2.78,4.88-58-6-95.58,14-98.24,4.2C321.89,117.05,374.73,113.41,421,134.13ZM283.46,259.06c19.82,5.27,27.82,10.6,32.18,16.24-13.44,4.86-21,6.42-32.18,6.42s-18.74-1.56-32.18-6.42C255.64,269.66,263.64,264.33,283.46,259.06ZM145.94,134.13c46.25-20.72,99.09-17.08,101,9.08C244.31,153,206.69,133,148.72,139,141.71,139.7,139,137.49,145.94,134.13Zm42.74,73.65c-30.18-4-33.8-30.08-33.8-30.08,15.69-21.73,42.65-19.31,42.65-19.31,42.24-.81,49.08,42.39,49.08,42.39S218.85,211.8,188.68,207.78Zm51.9,121a40.42,40.42,0,0,1-15.07-4.2,85,85,0,0,0,14.8-1.49c4.63-1,9.42-2.23,12.53-4.46.83-.56,1.63-1.26,2.64-2a22.36,22.36,0,0,1,4-2.57,20.38,20.38,0,0,1,2.57-1,21.28,21.28,0,0,1,2.62-.52c.82-.06,1.7-.16,2.49-.16l2.32.06a49.65,49.65,0,0,1,8.3,1.43c2.63.64,5.73,1.52,5.73,1.52s3.1-.88,5.73-1.52a49.65,49.65,0,0,1,8.3-1.43l2.33-.06c.78,0,1.66.1,2.48.16a21.28,21.28,0,0,1,2.62.52,19.8,19.8,0,0,1,2.57,1,22,22,0,0,1,3.95,2.57c1,.78,1.82,1.48,2.64,2,3.11,2.23,7.9,3.46,12.53,4.46a85,85,0,0,0,14.8,1.49,40.37,40.37,0,0,1-15.06,4.2,42.1,42.1,0,0,1-8.09-.07,26,26,0,0,1-8.47-2.18,41,41,0,0,1-3.73-1.95,11.69,11.69,0,0,0-2.55-1.18c-.35-.1-.66-.12-1-.19s-.68-.07-1.1,0-.81,0-1.27.08l-1.43.22a148.56,148.56,0,0,0-15.26,4.42,147.84,147.84,0,0,0-15.26-4.42l-1.43-.22c-.46-.06-.84,0-1.27-.08s-.71.06-1.09,0-.65.09-1,.19a11.91,11.91,0,0,0-2.55,1.18,41,41,0,0,1-3.73,1.95,26,26,0,0,1-8.47,2.18A42,42,0,0,1,240.58,328.75Zm42.88,16.43a85,85,0,0,0,28.32-4.87C305.47,350.85,297.62,356,283.46,356s-22-5.17-28.32-15.71A85,85,0,0,0,283.46,345.18Z"/></g></svg>
